<svg width="35" height="46" viewBox="0 0 35 46" fill="none" xmlns="http://www.w3.org/2000/svg">
<path fill-rule="evenodd" clip-rule="evenodd" d="M30.5836 0.0759097C30.3849 0.111857 29.818 0.274253 29.3238 0.436901C26.664 1.3121 24.8051 1.75391 23.7694 1.75694C23.3652 1.75812 23.1809 1.72335 23.1102 1.63235C22.9661 1.44655 22.9188 1.46558 22.3618 1.93357C21.9746 2.25903 21.8309 2.44003 21.7605 2.6915C21.6378 3.12927 21.7577 3.40952 22.1411 3.58084C22.4764 3.73061 22.9569 3.66208 23.9764 3.31911C24.3788 3.18374 24.8553 3.10384 25.4724 3.06823C25.9705 3.03953 26.9959 2.98017 27.7512 2.93648C28.5065 2.8927 29.1394 2.873 29.1578 2.8927C29.2376 2.97799 26.4931 6.19391 26.0072 6.58445L25.7116 6.82211L24.4306 6.35706C23.7261 6.1013 22.7244 5.79562 22.2047 5.67776C21.3106 5.47496 19.8564 5.1212 19.252 4.95948C17.8676 4.58906 16.4777 4.42726 14.6063 4.41867C12.6338 4.40958 12.4282 4.44207 10.5512 5.0595C8.76331 5.64762 6.20984 6.92069 5.22614 7.71432C4.25047 8.50146 3.89339 8.83071 3.22835 9.55648C2.44496 10.4115 2.16535 10.7492 2.16535 10.8407C2.16535 10.8798 2.0552 11.059 1.92055 11.239C1.55858 11.7229 0.853228 13.3771 0.597402 14.3421C0.0478742 16.4147 0 16.8397 0 19.6483L0 22.0897L0.261654 22.9736C0.625512 24.2027 0.712677 24.4366 1.09646 25.2118C1.78252 26.5976 2.90055 27.8961 4.23213 28.8538C4.8148 29.2728 6.3622 30.1108 7.22984 30.4772C9.00362 31.2261 10.5496 31.5531 12.3425 31.5584L13.1102 31.5606L13.1102 34.002C13.1102 35.3448 13.0836 36.4413 13.0512 36.4386C12.9824 36.4329 12.6971 36.2206 12.0183 35.6701C11.5433 35.2849 10.9764 35.0423 10.438 34.9939C10.2931 34.9809 10.1604 35.013 10.143 35.0653C10.115 35.1494 10.2819 35.2756 11.0723 35.7679C11.5379 36.0578 12.248 36.8883 12.1343 37.0099C11.9674 37.1882 8.4515 37.2643 7.16535 37.1172C6.34968 37.0239 5.67843 36.7861 5.40449 36.4933C5.1985 36.273 5.21677 36.0613 5.45102 35.9553C5.77953 35.8067 6.1811 35.4917 6.1811 35.3828C6.1811 35.3006 6.08205 35.2648 5.85433 35.2648C5.65724 35.2648 5.36449 35.1765 5.11677 35.0424C4.63228 34.7802 4.45228 34.8064 4.04236 35.1991C3.46465 35.7526 3.28417 36.4914 3.57693 37.1049C3.77173 37.5132 3.80677 37.5402 4.61827 37.9095C6.33465 38.6903 9.03827 38.9536 12.126 38.6406C12.5157 38.6011 12.8486 38.5821 12.8656 38.5985C12.8826 38.6149 12.8568 39.2069 12.8083 39.9141C12.7598 40.6214 12.6981 41.7543 12.6713 42.4317L12.6224 43.6635L12.9043 43.9738C13.1164 44.2073 13.2387 44.2776 13.3981 44.2575C13.5852 44.2338 13.6304 44.1619 13.7852 43.6414C13.8817 43.3173 13.9912 42.8816 14.0285 42.6732L14.0965 42.2944L14.308 43.01C14.4244 43.4036 14.6088 44.049 14.7179 44.4443C14.8817 45.0383 14.9777 45.2318 15.2717 45.5597C15.4672 45.778 15.6918 45.9565 15.7706 45.9565C15.9231 45.9565 16.297 45.5677 16.5294 45.1674C16.615 45.0201 16.703 44.6067 16.7545 44.1101C16.8457 43.2317 16.8065 42.8148 16.3444 39.7478C16.1563 38.4995 16.1002 37.9274 16.1598 37.8638C16.1954 37.8257 16.5691 37.6989 16.9902 37.582C21.2298 36.4053 23.7082 35.6345 23.9567 35.4153C24.184 35.2147 24.0359 35.1655 23.3268 35.2062C22.2385 35.2685 19.9934 35.6474 17.0079 36.2724C16.1302 36.4562 16.0564 36.4608 15.9611 36.3381C15.8755 36.2278 15.8338 35.7336 15.6609 32.7813C15.6365 32.3646 15.6476 31.8726 15.6856 31.6881L15.7546 31.3526L16.3419 31.2419C17.0283 31.1125 17.2848 31.0479 18.0315 30.8158C18.3346 30.7215 18.6713 30.6209 18.7795 30.5922C18.8878 30.5634 19.0472 30.5091 19.1339 30.4714C19.2205 30.4338 19.3905 30.3604 19.5116 30.3084C19.6327 30.2562 19.7862 30.2137 19.8527 30.2137C19.968 30.2137 20.5129 29.9733 21.5971 29.4442C22.0928 29.2023 22.2557 29.0137 22.1065 28.8543C22.0528 28.7968 21.915 28.8231 21.6827 28.9351C21.2532 29.1423 20.7469 29.3216 20.2362 29.4472C19.363 29.662 18.8186 29.7784 18.7967 29.7549C18.784 29.7414 19.0435 29.5932 19.3735 29.4257C21.2944 28.4503 23.0693 27.1108 24.1427 25.8262C25.0586 24.7301 26.3198 22.5476 26.8831 21.084L27.2413 20.1534L27.242 18.8064C27.2428 17.3966 27.1479 16.7157 26.7984 15.6239C26.4928 14.669 26.1618 14.0338 25.0676 12.3028C24.9966 12.1903 24.6844 11.799 24.3739 11.4331C23.8736 10.8436 23.8209 10.7506 23.9124 10.6174C24.2153 10.1767 25.7469 8.58573 25.9108 8.54178C26.1272 8.4837 26.6632 8.74518 27.1654 9.15382C27.9841 9.82007 28.2035 10.01 28.8424 10.6056C29.7845 11.4839 30.5691 12.3676 30.9341 12.9615C31.1028 13.2359 31.2724 13.4605 31.3111 13.4605C31.3497 13.4605 31.4212 13.3671 31.4698 13.2528C31.6276 12.8827 31.2861 12.0744 30.4374 10.8087C30.0349 10.2085 28.5238 8.70511 27.7409 8.1259L26.9777 7.56135L28.3807 6.05761C29.7386 4.60219 30.4429 3.74282 30.8181 3.08347C30.9967 2.76962 31.2708 2.54207 31.358 2.63526C31.4125 2.69352 31.2694 3.259 31.0686 3.7791C30.8379 4.37657 30.6943 4.80113 30.5848 5.21027C30.5291 5.41863 30.4595 5.627 30.4303 5.6733C30.401 5.7196 30.3142 6.15796 30.2373 6.64742C30.1258 7.35686 30.1166 7.57558 30.1919 7.72593C30.3568 8.05536 30.472 7.92082 30.8687 6.9361C30.9653 6.69616 31.0183 6.63673 31.0533 6.7295C31.0803 6.80106 31.2087 7.01809 31.3386 7.21181C31.5131 7.47186 31.6295 7.56438 31.7841 7.56573C31.9617 7.56724 32.0378 7.48137 32.2863 6.99924C32.4474 6.68674 32.986 5.63542 33.4832 4.66306C33.9804 3.69071 34.5251 2.73502 34.6936 2.53921C34.9202 2.27595 35 2.11112 35 1.90604C35 1.66484 34.9565 1.6049 34.6654 1.44503C34.4813 1.34393 34.1387 1.19744 33.904 1.11957C33.5102 0.988828 33.4494 0.988323 33.1166 1.11267C32.3117 1.41338 31.2992 1.59135 31.2992 1.43215C31.2992 1.27313 31.5189 1.19904 32.0472 1.17985C32.6336 1.15855 33.0639 1.05432 33.2877 0.879385C33.3999 0.791663 33.4103 0.72785 33.3448 0.526981C33.2244 0.157739 32.7014 -0.0118967 31.7217 0.000647058C31.2945 0.00603499 30.7823 0.0399621 30.5836 0.0759097ZM30.5906 1.15383C30.5906 1.37802 29.6321 1.7135 28.7884 1.78456C28.2959 1.82606 28.3624 1.7726 29.1732 1.47534C30.0698 1.14659 30.5906 1.02848 30.5906 1.15383ZM14.9961 5.92156C14.5049 6.11503 14.0436 6.16832 13.9688 6.04027C13.8837 5.89454 14.1567 5.82096 14.8031 5.81549L15.2756 5.81145L14.9961 5.92156ZM12.2047 6.64279C12.3362 6.69355 12.2842 6.74516 11.8898 6.95537C8.51268 8.75469 5.33654 10.8865 4.34929 12.0163C4.14291 12.2525 3.90835 12.4833 3.82787 12.5294C3.74748 12.5753 3.38276 13.0215 3.01748 13.5208C2.32575 14.4663 1.58677 15.7611 1.14142 16.8081C0.998346 17.1443 0.864646 17.4017 0.844331 17.3799C0.721024 17.2482 1.3589 15.2346 1.87102 14.1388C2.38055 13.0488 3.33488 11.6365 4.17323 10.732C4.92441 9.92143 5.19646 9.69101 6.1811 9.03091C6.78126 8.6285 9.18362 7.36881 10.2756 6.8839C11.0969 6.5192 11.2214 6.48646 11.6142 6.53192C11.8524 6.55945 12.1181 6.60937 12.2047 6.64279ZM19.8425 6.72714C21.0013 6.83019 21.8336 6.95866 23.3465 7.26796C23.8887 7.37892 24.6891 7.62238 24.7598 7.69798C24.8139 7.75574 24.509 8.13626 23.8184 8.87289C22.8274 9.9301 22.7907 9.95957 22.5797 9.8662C21.1601 9.23817 20.7441 9.08134 20 8.89368C19.5236 8.77355 18.8858 8.63691 18.5827 8.59002C18.2795 8.54321 17.7739 8.46442 17.4591 8.415C17.1444 8.36558 16.2276 8.32517 15.4218 8.32517C14.1771 8.32517 13.8129 8.35632 12.9998 8.53236C9.87819 9.20812 7.26417 11.0592 5.57228 13.7922C5.08504 14.5791 4.30378 16.2792 4.09969 16.9964C4.02724 17.251 3.93717 17.5205 3.89945 17.5953C3.8078 17.777 3.30394 20.0811 3.18803 20.8487C3.08551 21.5271 3.14378 22.9806 3.28591 23.2893C3.47189 23.6935 3.55803 23.4953 3.61244 22.5385C3.64181 22.0214 3.69709 21.4437 3.73528 21.2547C3.77346 21.0657 3.84512 20.6459 3.89457 20.3217C4.12016 18.8434 4.58299 17.169 4.88354 16.7438C4.9326 16.6744 5.06984 16.3713 5.18842 16.0703C5.60339 15.0176 6.44772 13.8895 8.03394 12.2683C9.37236 10.9004 10.6378 10.2077 12.4803 9.83413C13.14 9.70036 15.1923 9.63688 15.366 9.74481C15.4923 9.82327 15.4783 9.83573 15.2608 9.838C14.1723 9.84903 11.9447 10.9081 10.3549 12.1703C8.90409 13.3222 7.25457 15.2345 6.69567 16.4125C6.39827 17.0392 5.90685 18.3071 5.58693 19.2727C5.25843 20.2644 5.15016 21.3441 5.23638 22.7695C5.29142 23.6794 5.52283 25.0025 5.70638 25.4571C6.09819 26.4272 6.3037 26.8625 6.42583 26.9807C6.50575 27.058 6.55213 27.1541 6.5289 27.1942C6.47417 27.2889 6.0785 27.2874 5.7178 27.1911C5.56118 27.1493 5.25591 27.0712 5.03937 27.0175C4.82283 26.9639 4.39441 26.7891 4.08724 26.6291C2.76717 25.9414 1.85543 24.8661 1.39339 23.4522C1.11882 22.612 1.11323 22.5687 1.11339 21.2899C1.11354 19.8669 1.24331 19.1377 1.77008 17.601C2.15299 16.484 2.28291 16.2442 3.10968 15.1283C3.30488 14.8649 3.62402 14.4163 3.8189 14.1316C4.18512 13.5966 4.9263 12.8455 5.74803 12.1769C6.00787 11.9655 6.44701 11.5817 6.72378 11.3241C7.00063 11.0664 7.46126 10.7082 7.7474 10.528C8.4674 10.0747 10.7939 8.7461 10.8679 8.7461C10.9011 8.7461 11.6053 8.48513 12.4327 8.16623C14.1875 7.48987 14.3576 7.43322 14.8819 7.35105C15.0984 7.31712 15.3287 7.27983 15.3937 7.26804C15.4587 7.25634 15.7598 7.2065 16.063 7.15734C16.3661 7.10817 17.0748 6.97558 17.6378 6.86269C18.8775 6.61417 18.6962 6.62528 19.8425 6.72714ZM18.6463 11.1101C19.5406 11.2538 20.9843 11.7261 20.9843 11.8749C20.9843 11.9516 20.492 12.6276 19.8813 13.3897C19.5146 13.8472 19.4779 14.0919 19.7645 14.1688C20.0649 14.2494 20.3909 14.0255 21.2421 13.1541C21.6655 12.7207 22.0509 12.3661 22.0987 12.3661C22.2052 12.3661 23.027 12.9593 23.4891 13.3695C23.9544 13.7828 24.414 14.4422 24.5305 14.8639C24.618 15.1807 24.6064 15.2829 24.4113 15.9162C24.1143 16.8796 23.2871 18.5953 22.7533 19.355C21.8238 20.6779 20.2431 22.1963 19.114 22.851C18.9084 22.9702 18.4213 23.2732 18.0315 23.5244C17.1944 24.0638 15.2205 25.1869 14.3335 25.6284C13.3942 26.0961 12.5587 26.3926 11.4961 26.6354C8.76362 27.2597 8.72724 27.2671 8.39165 27.2671C7.63197 27.2671 6.70291 26.0384 6.32717 24.5368C6.10071 23.6318 6.1226 21.8421 6.37465 20.6487C6.82213 18.5306 7.47559 16.7855 8.23669 15.6758C9.04087 14.5034 10.1735 13.2947 10.7283 13.0171C10.8258 12.9683 10.9055 12.8995 10.9055 12.8643C10.9055 12.7857 11.9158 12.2664 12.7165 11.9335C13.3939 11.6518 14.6124 11.3032 15.4724 11.145C16.2134 11.0087 17.9001 10.9902 18.6463 11.1101ZM25.3107 17.1227C25.4783 17.6989 25.6299 18.7103 25.6299 19.2529C25.6299 19.6836 25.5712 20.0039 25.4017 20.4982C25.045 21.5377 24.9317 21.7877 24.608 22.2488C24.2196 22.8021 22.6585 24.4357 22.0472 24.9283C21.6209 25.2718 19.1187 26.6133 17.7165 27.25C16.627 27.7448 15.7939 27.9928 15.6611 27.8621C15.4885 27.6921 15.0087 27.5929 14.8364 27.6916C14.6254 27.8123 14.5306 27.69 14.5287 27.2947C14.528 27.1339 14.4491 26.9278 14.3307 26.7773C14.2224 26.6398 14.1339 26.5027 14.1339 26.4727C14.1339 26.4428 14.373 26.3039 14.6654 26.1641C17.0717 25.0139 18.2732 24.351 19.2126 23.6554C19.9192 23.1322 20.3898 22.7744 20.6025 22.5988C20.7173 22.504 20.9184 22.3392 21.0494 22.2325C21.498 21.8672 22.4666 20.911 22.8032 20.5015C23.7472 19.3523 24.3294 18.3008 24.7208 17.0385C24.8356 16.668 24.9483 16.3082 24.9713 16.2387C25.0099 16.122 25.05 16.2265 25.3107 17.1227ZM22.9076 25.9009C21.6888 27.1154 20.6954 27.7947 19.252 28.4004C18.8406 28.573 18.4685 28.7448 18.4252 28.7821C18.3819 28.8194 18.0749 28.9471 17.7429 29.0658C17.1991 29.2602 16.7515 29.3659 15.8406 29.5148L15.5395 29.564L15.565 29.2825C15.5894 29.014 15.6139 28.9941 16.1024 28.8461C17.2006 28.5133 19.621 27.6407 19.8934 27.4794C20.0513 27.3857 20.5865 27.0752 21.0828 26.7892C21.5791 26.5032 22.2471 26.0969 22.5673 25.8865C22.8876 25.676 23.185 25.5036 23.2283 25.5033C23.2717 25.5031 23.1273 25.682 22.9076 25.9009ZM12.874 27.1206C12.874 27.2252 12.9398 27.3548 13.0203 27.4085C13.1927 27.5236 13.3006 28.1756 13.1743 28.3385C13.0663 28.4775 12.4835 28.4723 11.1417 28.3205C10.1098 28.2037 9.51551 28.0767 9.38543 27.945C9.30969 27.8684 9.53276 27.8062 11.2402 27.4282C11.9087 27.2802 12.5635 27.075 12.6068 27C12.6913 26.8539 12.874 26.9364 12.874 27.1206ZM5.98425 27.8606C6.24409 27.9101 6.69102 27.9777 6.97732 28.0109C7.33874 28.0528 7.59362 28.139 7.81047 28.2923C8.26291 28.6125 9.22189 29.1171 9.63968 29.2549C9.83787 29.3203 10.3366 29.3914 10.748 29.4129C13.1231 29.5368 13.2623 29.5597 13.2665 29.8272C13.2681 29.9266 10.0609 29.8217 9.44158 29.702C8.40835 29.5024 6.6637 28.8209 5.55118 28.1825C4.59323 27.6327 4.63276 27.6033 5.98425 27.8606ZM14.7494 38.7375C14.7985 38.9806 14.8761 39.4826 14.9217 39.853C14.9674 40.2234 15.0387 40.7159 15.0801 40.9474C15.1215 41.1789 15.1896 41.6525 15.2313 41.9998C15.2731 42.347 15.3797 43.0668 15.4681 43.5993C15.6491 44.6883 15.6587 44.8069 15.5609 44.7422C15.5229 44.7171 15.3968 44.2508 15.2808 43.706C15.1646 43.1611 15.0196 42.488 14.9585 42.2102C14.8973 41.9324 14.7744 41.3263 14.6854 40.8632C14.5963 40.4002 14.4924 39.8991 14.4546 39.7496C14.4154 39.5945 14.4155 39.3416 14.4548 39.1603C14.4928 38.9856 14.5246 38.7197 14.5257 38.5692C14.5286 38.1518 14.6493 38.2428 14.7494 38.7375ZM20.0994 43.1417C19.8741 43.2725 19.6264 43.6902 19.6037 43.9779C19.5323 44.8814 20.5253 45.5178 21.2205 45.0142C21.6153 44.7282 21.7689 44.2316 21.6117 43.7494C21.4024 43.1069 20.6681 42.8119 20.0994 43.1417ZM21.0646 43.3055C21.191 43.3754 21.3351 43.5138 21.3847 43.6129C21.5106 43.8644 21.4895 44.4421 21.349 44.5924C21.2452 44.7033 21.2133 44.6852 21.0706 44.4343C20.9326 44.1916 20.9261 44.1409 21.0256 44.0814C21.1928 43.9813 21.1697 43.6212 20.9894 43.5181C20.9057 43.4702 20.6825 43.4309 20.4935 43.4309H20.15L20.183 43.9848C20.2044 44.3447 20.1832 44.5731 20.1224 44.6372C19.9806 44.7865 19.8031 44.4767 19.8031 44.0799C19.8031 43.8179 19.8577 43.6925 20.0709 43.4646C20.3722 43.1424 20.6804 43.0931 21.0646 43.3055ZM20.783 43.6759C20.8509 43.7934 20.7446 44.0202 20.6215 44.0202C20.557 44.0202 20.5118 43.9335 20.5118 43.8098C20.5118 43.603 20.69 43.515 20.783 43.6759ZM20.7108 44.4455C20.7791 44.5868 20.9129 44.7345 21.008 44.7736C21.1753 44.8423 21.1732 44.8481 20.9457 44.9432C20.6987 45.0465 20.2355 44.997 20.1556 44.8588C20.129 44.8128 20.2298 44.7779 20.3891 44.7779C20.5432 44.7779 20.6693 44.74 20.6693 44.6937C20.6693 44.6474 20.6339 44.6095 20.5906 44.6095C20.5472 44.6095 20.5118 44.5148 20.5118 44.3991C20.5118 44.1224 20.5598 44.1335 20.7108 44.4455Z" fill="white"/>
</svg>
