<svg width="35" height="16" viewBox="0 0 35 16" fill="none" xmlns="http://www.w3.org/2000/svg">
<path d="M4.30156 0.765072L8.82935 0.638215L13.9365 15.2532L9.82406 15.3684L8.85008 12.5064L4.92461 12.6164L4.13317 15.5278L0 15.6436L4.30156 0.765072ZM8.13057 9.82442L6.6766 4.66865L5.45128 9.89948L8.13057 9.82442Z" fill="white"/>
<path d="M11.5997 15.3507L11.1865 0.604244L15.2366 0.490771L15.488 9.46328L20.6783 0.33831L24.4584 0.232402L24.8715 14.9789L20.8214 15.0924L20.5701 6.11985L15.4421 15.2431L11.5997 15.3507Z" fill="white"/>
<path d="M29.1363 14.9564C27.7655 14.9949 26.5258 14.7663 25.4171 14.2708C24.322 13.761 23.4426 13.0374 22.7789 12.0998L25.7583 10.1248C26.0903 10.6005 26.5235 10.9764 27.0578 11.2524C27.6056 11.5142 28.2325 11.6352 28.9387 11.6154C29.6726 11.5949 30.1814 11.4559 30.4652 11.1985C30.7486 10.9273 30.8849 10.5978 30.874 10.2101C30.8663 9.9332 30.7974 9.69955 30.6673 9.50919C30.5373 9.31883 30.3253 9.17234 30.0314 9.06972C29.7375 8.96709 29.3483 8.92257 28.8637 8.93615L26.8075 8.99376L26.7225 5.96138L28.7787 5.90377C29.1802 5.89252 29.4975 5.84206 29.7306 5.75239C29.9771 5.64848 30.1465 5.51209 30.2388 5.34322C30.3445 5.16011 30.3941 4.95086 30.3875 4.71547C30.3809 4.48008 30.3199 4.28086 30.2045 4.1178C30.0886 3.9409 29.8978 3.80768 29.632 3.71812C29.3662 3.62857 29.0049 3.59019 28.5479 3.60299C27.7448 3.62549 27.0772 3.78277 26.5449 4.07483C26.0265 4.3665 25.6349 4.73084 25.37 5.16784L22.404 3.17234C23.0577 2.26715 23.8683 1.52386 24.8359 0.94246C25.8034 0.361058 27.0626 0.0486322 28.6134 0.00518267C29.7904 -0.0277924 30.7916 0.0965869 31.6171 0.37832C32.4564 0.659666 33.1061 1.09875 33.5663 1.69558C34.0264 2.29241 34.2693 3.04776 34.2949 3.96163C34.312 4.57087 34.1833 5.17034 33.9088 5.76004C33.6343 6.34974 33.1348 6.82103 32.4103 7.1739C33.2203 7.40064 33.8485 7.81261 34.2948 8.40983C34.7408 8.9932 34.9752 9.69336 34.998 10.5103C35.0244 11.4519 34.7835 12.2485 34.2751 12.9002C33.7668 13.5518 33.0671 14.0495 32.176 14.3932C31.2849 14.7369 30.2717 14.9246 29.1363 14.9564Z" fill="white"/>
</svg>
