<svg width="36" height="13" viewBox="0 0 36 13" fill="none" xmlns="http://www.w3.org/2000/svg">
<path d="M5.58316 7.69784L2.63516 10.6043C2.10923 11.121 1.68479 11.3794 1.36185 11.3794C1.07582 11.3794 0.9328 11.2779 0.9328 11.0749C0.9328 10.7427 1.28342 10.2721 1.98467 9.66317C2.34452 9.34945 2.7828 9.08649 3.2995 8.87427L4.36521 7.69784L3.56247 7.72552C3.21185 7.72552 3.03654 7.62402 3.03654 7.42103C3.03654 7.25495 3.24414 6.97814 3.65935 6.59061C4.07456 6.20308 4.3975 5.95857 4.62818 5.85707C5.01571 5.68176 5.42169 5.5941 5.84613 5.5941C5.98453 5.5941 6.05373 5.63101 6.05373 5.70483C6.05373 5.78787 5.87381 5.84784 5.51396 5.88475C5.20025 5.92166 5.04339 5.98163 5.04339 6.06468C5.04339 6.16617 5.1172 6.20769 5.26483 6.18924L5.36172 6.1754L6.12294 6.14772C9.86906 2.89062 12.0789 1.26207 12.7525 1.26207C12.8724 1.26207 12.9831 1.32205 13.0846 1.44199C13.1861 1.55272 13.2369 1.67728 13.2369 1.81568C13.2369 2.00022 13.1215 2.29548 12.8909 2.70147L11.1331 5.80171L11.9497 5.77403C12.0235 5.7648 12.1527 5.79248 12.3373 5.85707C11.9959 6.25383 11.6499 6.77515 11.2992 7.42103L10.192 7.47639L9.62455 8.4729C9.42155 8.83275 9.32006 9.04958 9.32006 9.1234C9.32006 9.16953 9.34774 9.22028 9.4031 9.27564C9.45846 9.331 9.51844 9.35868 9.58303 9.35868C9.73988 9.35868 10.1366 9.10956 10.7733 8.6113L11.0224 8.97115C9.79524 10.143 8.87717 10.7289 8.26819 10.7289C8.05597 10.7289 7.88066 10.6597 7.74226 10.5213C7.60385 10.3736 7.53465 10.1937 7.53465 9.9815C7.53465 9.6401 7.66844 9.22951 7.93602 8.74971L8.57268 7.60096L5.58316 7.69784ZM9.59687 5.87091L11.4792 2.72915C10.1966 3.65184 8.85871 4.74523 7.46545 6.00931L9.59687 5.87091Z" fill="#111111"/>
<path d="M21.2094 1.66344C21.071 1.62653 20.9049 1.60808 20.7111 1.60808C20.6004 1.60808 20.4158 1.61731 20.1575 1.63576C19.8991 1.65421 19.7008 1.66344 19.5624 1.66344C19.4516 1.66344 19.2994 1.67267 19.1056 1.69112C18.9119 1.70035 18.7412 1.7188 18.5935 1.74648C18.4459 1.76494 18.2614 1.79262 18.0399 1.82953C17.4402 1.92179 16.9142 2.03713 16.4621 2.17553C15.7978 2.38775 15.2396 2.59997 14.7874 2.81219C14.2154 3.09822 13.671 3.42578 13.1543 3.79486C12.8959 4.06244 12.7667 4.29772 12.7667 4.50071C12.7667 4.63912 12.8406 4.76829 12.9882 4.88824C13.1358 5.00819 13.348 5.11892 13.6248 5.22041C13.2927 5.30346 12.9651 5.3865 12.6422 5.46954C12.3192 5.55258 11.9963 5.63101 11.6734 5.70483C11.5534 5.70483 11.3873 5.63101 11.1751 5.48338C10.9629 5.33575 10.7783 5.15121 10.6215 4.92977C10.4646 4.70832 10.3862 4.50071 10.3862 4.30695C10.3862 4.23313 10.4 4.15932 10.4277 4.0855C10.5292 3.8087 10.6815 3.5688 10.8845 3.36581C11.0874 3.15359 11.3596 2.93675 11.701 2.71531C12.2085 2.37391 12.8313 2.0602 13.5695 1.77416C14.3999 1.46045 15.2626 1.24823 16.1576 1.13751C16.6467 1.08215 17.1034 1.03601 17.5278 0.999104C17.9615 0.952969 18.3352 0.929901 18.6489 0.929901C19.3409 0.929901 19.9268 0.943742 20.4066 0.971422C20.8864 0.999103 21.3708 1.06369 21.8599 1.16519C21.823 1.18364 21.7122 1.2713 21.5277 1.42815C21.3432 1.58501 21.237 1.66344 21.2094 1.66344ZM16.5036 2.96443C16.5036 3.0567 16.4529 3.25508 16.3514 3.55957C16.2591 3.85483 16.1945 4.07166 16.1576 4.21007C16.1484 4.29311 16.0792 4.55146 15.95 4.98513C15.8208 5.41879 15.6409 6.02777 15.4103 6.81205C15.1888 7.58712 14.9997 8.233 14.8428 8.74971C14.6952 9.25719 14.6167 9.52938 14.6075 9.56629C14.5337 9.77851 14.446 10.0046 14.3445 10.2445C14.2523 10.4844 14.1185 10.7427 13.9432 11.0195C13.7771 11.2963 13.5603 11.5547 13.2927 11.7946C13.0251 11.9976 12.7714 12.0991 12.5315 12.0991C12.2639 12.0991 12.0424 11.9699 11.8671 11.7115C11.701 11.4624 11.618 11.1672 11.618 10.8258C11.618 10.3644 11.7518 9.99995 12.0194 9.73237C12.1301 9.93536 12.2546 10.0369 12.3931 10.0369C12.5868 10.0369 12.799 9.85232 13.0297 9.48324C13.0943 9.38175 13.1866 9.23873 13.3065 9.05419C13.4265 8.86043 13.5233 8.69896 13.5972 8.56978C13.671 8.43138 13.7494 8.26991 13.8324 8.08537C14.0539 7.5133 14.2523 6.96891 14.4276 6.45221C14.4553 6.36916 14.5152 6.20308 14.6075 5.95395C14.6998 5.6956 14.8013 5.40034 14.912 5.06817C15.0319 4.72677 15.1381 4.43613 15.2303 4.19623C15.3318 3.95633 15.4379 3.68875 15.5487 3.39349C15.6778 3.35658 15.8578 3.28276 16.0884 3.17204C16.3191 3.05209 16.4575 2.98289 16.5036 2.96443ZM20.0468 9.52477C20.0006 9.89384 19.973 10.0876 19.9637 10.1061C19.9084 10.1337 19.8115 10.1983 19.6731 10.2998C19.5439 10.3921 19.4009 10.4798 19.244 10.5628C19.0964 10.6366 18.9395 10.6966 18.7735 10.7427C18.6443 10.7796 18.5105 10.7981 18.3721 10.7981C18.123 10.7981 17.92 10.7519 17.7631 10.6597C17.7262 10.6412 17.6662 10.6135 17.5832 10.5766C17.5094 10.5305 17.4356 10.489 17.3617 10.4521C17.2972 10.4059 17.2372 10.3644 17.1818 10.3275C17.1357 10.2814 17.0942 10.2306 17.0573 10.1753C16.8266 9.87077 16.7112 9.4002 16.7112 8.76355C16.7112 8.39447 16.7343 8.05307 16.7804 7.73936C16.8266 7.41642 16.9004 7.01966 17.0019 6.54909C17.0388 6.29074 17.1218 5.92627 17.251 5.4557C17.3894 4.98513 17.5232 4.5284 17.6524 4.0855C17.7908 3.64261 17.8784 3.35658 17.9154 3.2274C17.9984 3.14436 18.146 3.02902 18.3582 2.88139C18.5797 2.72453 18.7043 2.63227 18.7319 2.60459C18.7504 2.60459 18.7688 2.61381 18.7873 2.63227C18.5382 3.49037 18.3352 4.41767 18.1783 5.41418C18.1137 5.82939 18.0584 6.35532 18.0122 6.99198C17.9661 7.62864 17.943 8.12228 17.943 8.4729C17.943 8.81429 17.9661 9.0911 18.0122 9.30332C18.0861 9.59858 18.206 9.80619 18.3721 9.92614C18.5105 10.0276 18.6673 10.0784 18.8427 10.0784C18.9072 10.0784 18.958 10.0784 18.9949 10.0784C19.0687 10.0692 19.161 10.0369 19.2717 9.9815C19.3917 9.92614 19.5485 9.83848 19.7423 9.71853C19.936 9.58935 20.0375 9.52477 20.0468 9.52477Z" fill="#111111"/>
<path d="M22.2252 5.91243L24.412 3.04748C22.9172 3.16743 21.6808 3.38887 20.7028 3.71181C20.2322 3.86867 19.9047 3.9471 19.7201 3.9471C19.5817 3.9471 19.5125 3.90097 19.5125 3.8087C19.5125 3.7072 19.6601 3.41655 19.9554 2.93675C20.2599 2.44773 20.4859 2.13863 20.6336 2.00945C20.9104 1.76955 21.5194 1.55733 22.4605 1.37279C23.4017 1.17903 24.352 1.08215 25.3116 1.08215C26.6126 1.08215 27.6599 1.29898 28.4534 1.73264C29.1731 2.1294 29.5329 2.82142 29.5329 3.8087C29.5329 4.60221 29.3438 5.27116 28.9655 5.81555C28.4211 6.60906 27.6137 7.24572 26.5434 7.72552C25.4823 8.19609 24.352 8.43138 23.1525 8.43138C22.9034 8.43138 22.3867 8.4037 21.6024 8.34833L21.0211 9.27564C21.1964 9.31255 21.2841 9.4002 21.2841 9.53861C21.2841 9.63088 21.0857 9.94459 20.6889 10.4798C20.4767 10.7658 20.3475 10.9365 20.3014 10.9918C20.1169 11.1764 19.9323 11.2687 19.7478 11.2687C19.4433 11.2687 19.2911 11.1072 19.2911 10.7842C19.2911 10.4705 19.7386 9.58013 20.6336 8.11305C20.2368 7.83624 20.0384 7.55482 20.0384 7.26879C20.0384 6.97353 20.1907 6.73363 20.4952 6.54909C20.7997 6.35532 21.3763 6.1431 22.2252 5.91243ZM23.1387 6.28612L22.8342 6.72901C23.3786 6.77515 23.7615 6.79821 23.9829 6.79821C24.6842 6.79821 25.4085 6.6552 26.1559 6.36916C26.9033 6.08313 27.4799 5.72328 27.8859 5.28962C28.0612 5.10508 28.2135 4.8744 28.3427 4.5976C28.4811 4.32079 28.5503 4.09473 28.5503 3.91942C28.5503 3.65184 28.2735 3.43501 27.7198 3.26892C27.1662 3.10284 26.3266 3.00596 25.2009 2.97828C25.1917 3.24586 25.1271 3.45807 25.0071 3.61493L23.457 5.71867L23.6785 5.70483L24.1075 5.66331C24.1536 5.65408 24.2228 5.64946 24.3151 5.64946C24.4535 5.64946 24.5227 5.70021 24.5227 5.80171C24.5227 5.8663 24.4812 5.91705 24.3982 5.95395C24.3151 5.98163 24.066 6.04161 23.6508 6.13388C23.4755 6.17078 23.3048 6.22153 23.1387 6.28612Z" fill="#111111"/>
<path d="M34.3412 3.36581C34.4703 3.34735 34.5903 3.33812 34.701 3.33812C35.3284 3.33812 35.716 3.57802 35.8636 4.05782C35.9097 4.22391 35.9328 4.41767 35.9328 4.63912C35.9328 5.01742 35.859 5.44186 35.7114 5.91243C35.573 6.383 35.4023 6.83512 35.1993 7.26879C34.9963 7.69322 34.7933 8.05769 34.5903 8.36218C33.7783 9.53399 32.8787 10.3091 31.8914 10.6874C31.2363 10.9088 30.6827 11.0195 30.2306 11.0195C30.0737 11.0195 29.9215 11.0057 29.7738 10.978C29.3955 10.9042 29.068 10.7058 28.7912 10.3829C28.5236 10.0599 28.3252 9.68162 28.196 9.24796C28.0576 8.81429 27.9884 8.39908 27.9884 8.00233C27.9884 7.97465 27.9884 7.95158 27.9884 7.93312C27.9884 7.90544 27.9884 7.87776 27.9884 7.85008C28.0346 7.09348 28.2975 6.33226 28.7773 5.56642C29.2571 4.80059 29.8523 4.10857 30.5627 3.49037C31.2732 2.86294 31.9791 2.37391 32.6803 2.02329C33.3816 1.66344 33.9536 1.48352 34.3965 1.48352C34.6364 1.48352 34.8163 1.54349 34.9363 1.66344C35.0286 1.7188 35.1762 1.88027 35.3792 2.14785C35.5914 2.41543 35.6975 2.61843 35.6975 2.75683C35.6975 2.80296 35.6791 2.83987 35.6422 2.86755C35.6237 2.88601 35.4345 2.95521 35.0747 3.07516C34.7148 3.19511 34.4703 3.29199 34.3412 3.36581ZM30.7011 6.68749L30.6735 6.14772C30.0922 6.74747 29.6677 7.55943 29.4002 8.58362C29.2894 8.94347 29.2341 9.22028 29.2341 9.41404C29.2341 9.61704 29.2802 9.77851 29.3725 9.89846C29.4924 10.0461 29.6631 10.1199 29.8846 10.1199C30.0968 10.1199 30.3413 10.0553 30.6181 9.92614C30.9503 9.79696 31.2732 9.63088 31.5869 9.42788C31.9099 9.21566 32.2051 8.98038 32.4727 8.72202C32.7403 8.46367 32.994 8.18686 33.2339 7.8916C33.4738 7.58712 33.6999 7.26417 33.9121 6.92278C34.069 6.70133 34.2627 6.34148 34.4934 5.84323C34.7333 5.33575 34.8533 4.91593 34.8533 4.58376C34.8533 4.25159 34.701 4.06705 34.3965 4.03014C33.9075 4.03014 33.2708 4.27466 32.4866 4.76368C32.2467 4.92054 32.016 5.10046 31.7945 5.30346C31.5823 5.49722 31.3886 5.70944 31.2132 5.94011C31.0379 6.16156 30.8672 6.41068 30.7011 6.68749Z" fill="#111111"/>
</svg>
