<svg width="36" height="22" viewBox="0 0 36 22" fill="none" xmlns="http://www.w3.org/2000/svg">
<path d="M0.016449 21.9243C0.016449 21.9137 1.65031 17.0037 3.64726 11.0131L7.2781 0.121277H10.377C12.8415 0.121277 13.476 0.127865 13.476 0.153496C13.476 0.171201 12.3005 3.71184 10.8639 8.02157C9.4272 12.3313 8.25175 15.8661 8.25175 15.8766C8.25175 15.8872 9.19242 15.8988 10.3421 15.9024L12.4325 15.909L12.8913 17.3629L13.3501 18.8169L13.2375 19.1643L13.125 19.5117L10.0756 19.5183L7.02615 19.5248L6.62882 20.7339L6.23152 21.9431L3.12399 21.9433C1.41483 21.9435 0.016449 21.9349 0.016449 21.9243Z" fill="white"/>
<path d="M13.5017 21.9244C13.5017 21.9137 15.1356 17.0037 17.1326 11.0131L20.7634 0.121277H23.8623C25.5668 0.121277 26.9613 0.129331 26.9613 0.139162C26.9613 0.149018 25.7858 3.69151 24.3492 8.01143C22.9125 12.3313 21.737 15.8726 21.737 15.881C21.737 15.8893 22.6398 15.8961 23.7431 15.8961H25.7492L25.8382 16.1728C26.0661 16.8811 26.8573 19.3909 26.8725 19.4538L26.8897 19.5246H23.7019H20.5142L20.1135 20.7276L19.7127 21.9307L16.6072 21.9372C14.8992 21.9408 13.5017 21.9351 13.5017 21.9244Z" fill="white"/>
<path d="M11.518 9.47671L13.0168 4.96619C13.8411 2.48542 14.5234 0.464386 14.533 0.47504C14.5426 0.485694 15.1068 2.16485 15.7868 4.20652L17.0232 7.91863L15.4907 12.5157C14.5677 15.2847 13.9506 17.0987 13.939 17.0771C13.9284 17.0574 13.3793 15.3392 12.7188 13.259L11.518 9.47671Z" fill="white"/>
<path d="M24.8569 9.50931C24.8495 9.46369 25.3555 7.91052 26.3437 4.94637C27.1676 2.47479 27.845 0.456228 27.8491 0.460629C27.8575 0.469661 35.0164 21.9174 35.0164 21.9334C35.0164 21.939 33.6174 21.9436 31.9074 21.9436H28.7983L26.8332 15.761C25.7524 12.3606 24.8631 9.54735 24.8569 9.50931Z" fill="white"/>
</svg>
