<svg width="35" height="36" viewBox="0 0 35 36" fill="none" xmlns="http://www.w3.org/2000/svg">
<path fill-rule="evenodd" clip-rule="evenodd" d="M14.6133 0.173115C7.61279 1.43547 2.13444 6.64501 0.389436 13.6989C-0.134623 15.8176 -0.128873 19.8647 0.401274 22.0149C2.00423 28.5159 6.8136 33.4861 13.1216 35.1609C22.045 37.5302 31.4182 32.2795 34.225 23.3392C34.8688 21.2886 35.0151 20.2147 34.9988 17.6583C34.9853 15.5444 34.9146 14.8986 34.5367 13.4407C33.7517 10.4125 32.3611 7.8571 30.2858 5.62865C27.7097 2.86241 24.7163 1.12733 21.1541 0.33545C19.4984 -0.0326013 16.2074 -0.114371 14.6133 0.173115ZM19.8243 0.974119C28.7822 2.2425 35.2919 10.8974 34.1039 19.9591C33.6133 23.7012 32.1372 26.8095 29.5252 29.6012C27.9567 31.2775 26.6448 32.2427 24.5854 33.2358C22.1192 34.4252 20.4782 34.7774 17.4338 34.7708C14.3226 34.7643 12.894 34.4302 10.1622 33.0704C5.59401 30.7965 2.42141 26.7794 1.16648 21.6802C0.707693 19.8153 0.757241 15.6079 1.2605 13.6989C1.73484 11.9005 2.8895 9.37217 3.88553 7.95127C7.48343 2.81851 13.6832 0.1046 19.8243 0.974119ZM15.32 1.66409C10.3936 2.30981 5.63493 5.7192 3.32816 10.256C-1.2766 19.3122 3.21824 30.3503 12.749 33.3919C16.9388 34.729 21.5537 34.2222 25.4663 31.9955C27.4173 30.8851 30.2977 27.9776 31.3713 26.0347C33.6803 21.8567 34.1465 16.9899 32.6599 12.5869C31.7714 9.95575 30.8796 8.53519 28.7646 6.38197C26.6362 4.21532 25.2401 3.31154 22.6182 2.40277C20.1919 1.56166 17.8841 1.32805 15.32 1.66409ZM19.4932 2.52138C26.4042 3.48317 31.7601 9.0673 32.5828 16.1682C33.1023 20.6513 31.4878 25.3389 28.2884 28.6381C25.3363 31.682 21.8814 33.1728 17.6874 33.2124C13.185 33.2547 9.62161 31.7095 6.50278 28.3621C4.29747 25.9951 3.11695 23.5942 2.56008 20.3435C2.23168 18.4266 2.23066 17.241 2.55534 15.3454C3.15736 11.8313 4.3203 9.57479 6.8645 6.985C8.88024 4.93283 10.2571 4.04317 12.6988 3.21497C15.1179 2.39451 17.116 2.19051 19.4932 2.52138ZM19.0403 10.2339V16.109H18.3639H17.6874V11.8914V7.67376H16.2526H14.8177L14.7729 12.7053L14.7281 17.7368L11.9378 12.6227C10.4032 9.81012 9.06017 7.50712 8.95313 7.50523C8.71554 7.50075 7.21218 9.15527 6.5109 10.193C4.06614 13.8101 3.57049 19.0006 5.28843 22.9949C5.51233 23.5157 5.93662 24.3485 6.23137 24.8455L6.7671 25.7493H8.69575H10.6244L9.99871 25.0443C8.16239 22.9751 7.37351 21.0285 7.24871 18.2576C7.15925 16.2701 7.36404 14.9938 8.01662 13.47L8.32186 12.7575L9.0781 14.1321C9.49393 14.888 11.5822 18.701 13.7185 22.6057L17.6029 29.7047L17.6475 24.2841L17.6922 18.8634H18.3662H19.0403V22.3063V25.7493H20.3931H21.746V22.3063V18.8634H24.7053C28.0985 18.8634 27.8967 18.7351 27.4136 20.5835C27.0409 22.0092 26.1999 23.5606 25.1741 24.7143L24.2542 25.7493H26.2016H28.149L28.5008 25.2464C29.0526 24.4576 29.9948 22.322 30.2919 21.1874C30.4406 20.6193 30.6053 19.3767 30.6579 18.4259C30.877 14.4671 29.4019 10.7456 26.5219 7.99069C24.6255 6.17677 22.0771 4.85329 19.7519 4.47474L19.0403 4.35889V10.2339ZM24.7081 10.3421C25.9682 11.6221 26.9122 13.2207 27.3948 14.8923C27.5433 15.4065 27.6647 15.8905 27.6647 15.9682C27.6647 16.0457 26.333 16.109 24.7053 16.109H21.746V12.1389V8.16869L22.6338 8.65294C23.122 8.91908 24.0555 9.67928 24.7081 10.3421Z" fill="white"/>
</svg>
