<svg width="35" height="36" viewBox="0 0 35 36" fill="none" xmlns="http://www.w3.org/2000/svg">
<path fill-rule="evenodd" clip-rule="evenodd" d="M16.0296 0.52889C15.6203 0.837721 13.8932 4.01896 12.1921 7.5988C10.491 11.1786 7.0516 18.2468 4.54955 23.3057C2.0475 28.3646 0 32.8444 0 33.261C0 33.678 0.317244 34.3361 0.704936 34.7244C1.31968 35.3393 3.46769 35.4295 17.4623 35.4295C32.4437 35.4295 33.5641 35.3748 34.2574 34.6085C34.6657 34.157 35 33.4576 35 33.0545C35 32.0153 20.2798 2.19963 19.1634 0.977773C18.1269 -0.157452 17.1294 -0.300197 16.0296 0.52889ZM19.3052 2.32442C20.4956 4.26584 29.824 22.7791 32.5374 28.5854C35.7363 35.4309 36.7841 34.9807 17.6548 34.9807C2.80763 34.9807 2.21038 34.9475 1.34032 34.0771C0.44782 33.1842 0.446923 33.1524 1.28468 31.496C1.75135 30.5731 2.58955 28.8085 3.14776 27.5741C4.91571 23.6652 15.7644 2.01245 16.2485 1.42666C17.0692 0.433727 18.3822 0.819317 19.3052 2.32442ZM15.9954 5.99853C13.6092 8.57512 12.6462 17.7463 14.1548 23.5391C14.9764 26.6952 15.8505 27.7985 17.5296 27.7985C19.0167 27.7985 20.4072 26.2746 21.9517 22.9528C22.549 21.6677 23.1651 20.6164 23.3208 20.6164C23.5703 20.6164 25.5769 24.3942 25.5769 24.8642C25.5769 24.9656 24.9362 25.1115 24.1531 25.1892C21.8701 25.4145 22.0083 26.4519 24.3214 26.4519H26.2819L27.7276 29.3849C29.2124 32.3969 30.1817 33.2471 31.0921 32.3363C31.4852 31.9431 30.7152 30.0201 27.9228 24.4211C25.8942 20.3534 24.0248 17.0253 23.769 17.0253C23.5128 17.0253 22.4085 18.8644 21.315 21.1124C20.2215 23.3604 19.0925 25.4814 18.8071 25.8257C17.9236 26.8909 17.0378 26.5242 16.2535 24.7686C14.7749 21.4603 15.6517 7.38019 17.3712 6.81595C17.6759 6.71585 18.038 7.19436 18.1942 7.90359C18.7322 10.3522 18.7425 10.3644 19.7333 9.74536C20.8937 9.02041 20.8748 8.52799 19.6157 6.65839C18.3113 4.72191 17.3421 4.5455 15.9954 5.99853ZM6.28474 25.9972C4.12417 30.3617 3.52737 31.9556 3.91013 32.3385C4.29333 32.7219 5.03506 31.6275 6.86179 27.9853L9.30192 23.1194L9.97859 24.449C10.351 25.1802 10.7957 26.2333 10.9671 26.7886C11.2413 27.6787 11.1206 27.7985 9.94987 27.7985C9.20455 27.7985 8.51218 28.0836 8.37263 28.4481C8.18058 28.9481 8.6091 29.129 10.2303 29.2336C12.1755 29.3593 12.3985 29.4989 13.1277 31.0529L13.9174 32.7363H19.946C25.6891 32.7363 26.0081 32.6882 26.6826 31.7263L27.3906 30.7163L21.315 30.5915L15.2389 30.4663L12.6767 25.3171C11.2673 22.4847 9.90186 20.1675 9.6425 20.1675C9.38314 20.1675 7.87231 22.7908 6.28474 25.9972Z" fill="white"/>
</svg>
